<?xml version="1.0" encoding="UTF-8"?>
<svg id="Calque_2" data-name="Calque 2" xmlns="http://www.w3.org/2000/svg" xmlns:xlink="http://www.w3.org/1999/xlink" viewBox="0 0 1000.04 625.05">
  <defs>
    <style>
      .cls-1 {
        fill: url(#Dégradé_sans_nom_18-12);
      }

      .cls-1, .cls-2, .cls-3, .cls-4, .cls-5, .cls-6, .cls-7, .cls-8, .cls-9, .cls-10, .cls-11, .cls-12, .cls-13, .cls-14, .cls-15, .cls-16, .cls-17, .cls-18, .cls-19 {
        isolation: isolate;
      }

      .cls-1, .cls-2, .cls-3, .cls-4, .cls-5, .cls-6, .cls-7, .cls-8, .cls-9, .cls-10, .cls-11, .cls-12, .cls-13, .cls-14, .cls-15, .cls-17, .cls-18, .cls-19 {
        opacity: .61;
      }

      .cls-2 {
        fill: url(#Dégradé_sans_nom_18-9);
      }

      .cls-3 {
        fill: url(#Dégradé_sans_nom_18-4);
      }

      .cls-4 {
        fill: url(#Dégradé_sans_nom_18-2);
      }

      .cls-5 {
        fill: url(#Dégradé_sans_nom_18-10);
      }

      .cls-20 {
        fill: #080826;
      }

      .cls-6 {
        fill: url(#Dégradé_sans_nom_18-11);
      }

      .cls-7 {
        fill: url(#Dégradé_sans_nom_18-8);
      }

      .cls-8 {
        fill: url(#Dégradé_sans_nom_18);
      }

      .cls-9 {
        fill: url(#Dégradé_sans_nom_18-7);
      }

      .cls-10 {
        fill: url(#Dégradé_sans_nom_18-14);
      }

      .cls-11 {
        fill: url(#Dégradé_sans_nom_18-6);
      }

      .cls-21 {
        fill: #3c003a;
      }

      .cls-12 {
        fill: url(#Dégradé_sans_nom_18-13);
      }

      .cls-13 {
        fill: url(#Dégradé_sans_nom_18-15);
      }

      .cls-14 {
        fill: url(#Dégradé_sans_nom_18-17);
      }

      .cls-15 {
        fill: url(#Dégradé_sans_nom_18-18);
      }

      .cls-16 {
        fill: #160d2d;
      }

      .cls-17 {
        fill: url(#Dégradé_sans_nom_18-5);
      }

      .cls-18 {
        fill: url(#Dégradé_sans_nom_18-3);
      }

      .cls-19 {
        fill: url(#Dégradé_sans_nom_18-16);
      }
    </style>
    <radialGradient id="Dégradé_sans_nom_18" data-name="Dégradé sans nom 18" cx="807.87" cy="123.64" fx="807.87" fy="123.64" r="398.14" gradientTransform="translate(0 626.02) scale(1 -1)" gradientUnits="userSpaceOnUse">
      <stop offset="0" stop-color="#09002b"/>
      <stop offset="1" stop-color="#750045"/>
    </radialGradient>
    <radialGradient id="Dégradé_sans_nom_18-2" data-name="Dégradé sans nom 18" cx="205.42" cy="165.49" fx="205.42" fy="165.49" r="238.52" xlink:href="#Dégradé_sans_nom_18"/>
    <radialGradient id="Dégradé_sans_nom_18-3" data-name="Dégradé sans nom 18" cx="517.1" cy="-6.18" fx="517.1" fy="-6.18" r="100.8" xlink:href="#Dégradé_sans_nom_18"/>
    <radialGradient id="Dégradé_sans_nom_18-4" data-name="Dégradé sans nom 18" cx="47.23" cy="628.76" fx="47.23" fy="628.76" r="495.95" xlink:href="#Dégradé_sans_nom_18"/>
    <radialGradient id="Dégradé_sans_nom_18-5" data-name="Dégradé sans nom 18" cx="569.13" cy="135.94" fx="569.13" fy="135.94" r="254.47" gradientTransform="translate(117.81 -98.21) rotate(49.44) scale(1 -1)" xlink:href="#Dégradé_sans_nom_18"/>
    <radialGradient id="Dégradé_sans_nom_18-6" data-name="Dégradé sans nom 18" cx="807.87" fx="807.87" r="398.14" xlink:href="#Dégradé_sans_nom_18"/>
    <radialGradient id="Dégradé_sans_nom_18-7" data-name="Dégradé sans nom 18" cx="569.13" cy="135.95" fx="569.13" fy="135.95" r="254.47" gradientTransform="translate(117.81 -98.21) rotate(49.44) scale(1 -1)" xlink:href="#Dégradé_sans_nom_18"/>
    <radialGradient id="Dégradé_sans_nom_18-8" data-name="Dégradé sans nom 18" cx="992.74" cy="690.8" fx="992.74" fy="690.8" r="181.04" gradientTransform="translate(209.65 948.94) rotate(-19.05) scale(1 -1)" xlink:href="#Dégradé_sans_nom_18"/>
    <radialGradient id="Dégradé_sans_nom_18-9" data-name="Dégradé sans nom 18" cx="399.49" cy="591.39" fx="399.49" fy="591.39" r="251.06" xlink:href="#Dégradé_sans_nom_18"/>
    <radialGradient id="Dégradé_sans_nom_18-10" data-name="Dégradé sans nom 18" cx="47.23" cy="628.76" fx="47.23" fy="628.76" r="495.95" xlink:href="#Dégradé_sans_nom_18"/>
    <radialGradient id="Dégradé_sans_nom_18-11" data-name="Dégradé sans nom 18" cx="399.49" cy="591.39" fx="399.49" fy="591.39" r="251.06" xlink:href="#Dégradé_sans_nom_18"/>
    <radialGradient id="Dégradé_sans_nom_18-12" data-name="Dégradé sans nom 18" cx="439.64" cy="61.76" fx="439.64" fy="61.76" r="176.89" xlink:href="#Dégradé_sans_nom_18"/>
    <radialGradient id="Dégradé_sans_nom_18-13" data-name="Dégradé sans nom 18" cx="205.42" cy="165.49" fx="205.42" fy="165.49" r="238.52" xlink:href="#Dégradé_sans_nom_18"/>
    <radialGradient id="Dégradé_sans_nom_18-14" data-name="Dégradé sans nom 18" cx="439.64" cy="61.76" fx="439.64" fy="61.76" r="176.89" xlink:href="#Dégradé_sans_nom_18"/>
    <radialGradient id="Dégradé_sans_nom_18-15" data-name="Dégradé sans nom 18" cx="981.3" cy="-27.45" fx="981.3" fy="-27.45" r="135.04" xlink:href="#Dégradé_sans_nom_18"/>
    <radialGradient id="Dégradé_sans_nom_18-16" data-name="Dégradé sans nom 18" cx="235.88" cy="-159.92" fx="235.88" fy="-159.92" r="393.24" xlink:href="#Dégradé_sans_nom_18"/>
    <radialGradient id="Dégradé_sans_nom_18-17" data-name="Dégradé sans nom 18" cx="205.42" cy="165.49" fx="205.42" fy="165.49" r="238.52" xlink:href="#Dégradé_sans_nom_18"/>
    <radialGradient id="Dégradé_sans_nom_18-18" data-name="Dégradé sans nom 18" cx="235.88" cy="-159.92" fx="235.88" fy="-159.92" r="393.25" xlink:href="#Dégradé_sans_nom_18"/>
  </defs>
  <g id="Calque_2-2" data-name="Calque 2">
    <g>
      <g>
        <path class="cls-20" d="M942.81,399.46c-17.42-6.95-37.34-12.76-54.49-5.15-16.63,7.38-25.85,25.47-30.31,43.11s-5.53,36.21-12.28,53.11c-15.41,38.58-60.34,61.08-101.52,55.57-41.18-5.5-76.77-35.62-94.53-73.18-3.56-7.53-6.46-15.42-8.6-23.51-12.22-.76-24.3-4.6-34.57-11.27-16.63-10.8-38.62-37.81-34.26-59.63,4.73-23.7,36.39-34.02,48.58-53.14,12.4-19.44,8.71-44.83,2.48-67.04-6.24-22.2-14.67-45.05-10.35-67.7,4.49-23.57,23.85-43.61,47.24-48.93s49.51,4.4,63.74,23.71,15.78,47.13,3.78,67.91c-13.26,22.96-41.19,37.87-45.41,64.04-1.92,11.89,1.54,23.03,6.56,34.05,4.77-2.14,9.76-3.81,14.92-4.9,21.59-4.55,43.85.63,65.76,3.13,21.92,2.51,46.18,1.63,63.1-12.53,19.17-16.04,22.91-43.87,22.47-68.86s-3.45-51.2,6.9-73.95c11.91-26.19,40.78-42.56,69.55-43.12,24.93-.49,49.24,9.78,68.44,25.86V11.77c0-6.49-5.63-11.76-12.56-11.76h-7.21c14.16,21.58,18.8,49.84,5.09,71.15-9.88,15.36-27.32,24.42-45.04,28.88-34.82,8.75-72.62,1.79-103.98-15.69-23.86-13.31-45.23-33.99-51.89-60.49-1.96-7.79-2.46-15.87-1.66-23.84h-309.85c-5.3,8.22-14.23,14.53-23.23,18.95-21.28,10.46-45.62,14.59-69.16,11.71-19.38-2.37-41.25-8.74-56.81,3.06-10.5,7.97-13.78,20.96-16.95,34.21,37.8.3,77.32,16.21,92.65,44.88,7.71,14.43,8.15,32.16,2.77,47.61s-16.21,28.66-29.29,38.48c-25.63,19.25-60.92,25.52-91.13,14.81-30.22-10.71-54.03-38.63-58.36-70.39-.49-3.62-.74-7.1-.76-10.45-12.21.1-24.51-1.47-36.48-3.92-10.54-2.16-21.05-4.99-31.81-5.06s-22.09,3.06-29.31,11.02c-13.07,14.41-7.76,37.35.71,54.86,8.47,17.51,19.7,35.84,16.04,54.94-3.45,17.99-20.32,31.43-38.36,34.64s-36.7-2.33-52.67-11.31C31.04,256.98,11.8,238.43.03,217.02v239.05c4.24-1.58,8.61-2.79,13.08-3.58,28.38-4.98,59.09,7.32,76.19,30.51,7.68,10.41,13.05,23.04,23.61,30.51,19.07,13.5,45.01,4.61,67.77-.68,13.6-3.16,27.71-4.78,41.62-4.03,7.34-36.06,22.2-71.63-21.07-94.75-14.52-7.76-27.51-9.16-38.16-23.22-12.99-17.15-18.31-41.01-13.5-61.96,7.96-34.67,42.94-61.01,78.45-59.08,23.71,1.29,48.29,17.01,51.86,40.49,2.01,13.21-2.7,26.39-5.2,39.52-2.5,13.13-2.12,28.47,7.62,37.63,10.97,10.33,28.16,8.16,43.22,8.06,31.93-.21,64.15,12.83,85.39,36.67.35.39.68.79,1.02,1.18,17.35-24.64,55.43-34.96,76.98-11.61,23.67,25.65,26.09,69.12-5.93,89.71-14.26,9.17-32.95,9.93-48.6,3.56-.42,2.13-.91,4.25-1.49,6.36-6.9,24.95-24.48,45.9-45.21,61.4-22.77,17.03-50.96,28.25-79.07,28.44.19,4.6.3,9.21.39,13.8h128.43c-7.75-13.88-8.68-31.93.98-44.35,11.3-14.53,32.51-17.04,50.64-13.85,18.13,3.19,35.43,10.81,53.78,12.13,16.77,1.21,34.99-2.64,49.5,5.86,13.32,7.8,18.74,25.95,13.54,40.21h266.35c-2.37-5.51-3.97-11.35-4.67-17.29-2.72-23.21,7.6-47.14,25.23-62.47,18.05-15.69,49.74-27.98,72-15.28,19.12,10.91,32.72,30.21,35.26,52.01v-171.08c-.99.24-2,.45-3.01.62-18.5,3.11-36.76-5.1-54.18-12.06h-.04Z"/>
        <path class="cls-20" d="M1000,613.25v-16.49c-1.13,9.82-4.44,19.31-9.43,27.86,5.42-1.3,9.43-5.89,9.43-11.37Z"/>
        <path class="cls-20" d="M931.56,131.2c-28.76.56-57.63,16.93-69.55,43.12-10.35,22.75-7.34,48.96-6.9,73.95s-3.3,52.82-22.47,68.86c-16.92,14.16-41.18,15.03-63.1,12.53-21.92-2.51-44.18-7.68-65.76-3.13-5.17,1.09-10.15,2.75-14.92,4.9,6.98,15.31,17,30.37,19.92,46.84,4.37,24.63-9.12,50.96-30.96,63.17-11.14,6.23-24.02,8.78-36.76,7.99,2.14,8.09,5.04,15.98,8.6,23.51,17.76,37.56,53.35,67.67,94.53,73.18,41.18,5.5,86.11-16.99,101.52-55.57,6.75-16.9,7.82-35.47,12.28-53.11,4.46-17.64,13.68-35.74,30.31-43.11,17.15-7.6,37.06-1.8,54.49,5.15,17.42,6.95,35.68,15.17,54.18,12.06,1.01-.17,2.02-.38,3.01-.62v-253.83c-19.2-16.08-43.5-26.35-68.44-25.86l.02-.03Z"/>
        <path class="cls-8" d="M931.56,131.2c-28.76.56-57.63,16.93-69.55,43.12-10.35,22.75-7.34,48.96-6.9,73.95s-3.3,52.82-22.47,68.86c-16.92,14.16-41.18,15.03-63.1,12.53-21.92-2.51-44.18-7.68-65.76-3.13-5.17,1.09-10.15,2.75-14.92,4.9,6.98,15.31,17,30.37,19.92,46.84,4.37,24.63-9.12,50.96-30.96,63.17-11.14,6.23-24.02,8.78-36.76,7.99,2.14,8.09,5.04,15.98,8.6,23.51,17.76,37.56,53.35,67.67,94.53,73.18,41.18,5.5,86.11-16.99,101.52-55.57,6.75-16.9,7.82-35.47,12.28-53.11,4.46-17.64,13.68-35.74,30.31-43.11,17.15-7.6,37.06-1.8,54.49,5.15,17.42,6.95,35.68,15.17,54.18,12.06,1.01-.17,2.02-.38,3.01-.62v-253.83c-19.2-16.08-43.5-26.35-68.44-25.86l.02-.03Z"/>
        <path class="cls-20" d="M296.11,551.15c9.05,17.14,11.58,38.46,12.46,60.07,28.1-.2,56.3-11.42,79.07-28.44,20.73-15.5,38.3-36.46,45.21-61.4.58-2.1,1.07-4.22,1.49-6.36-7.13-2.91-13.63-7.29-18.79-13.04-16.49-18.37-17.89-48.29-3.74-68.51.03-.04.06-.07.08-.11-.34-.39-.67-.79-1.02-1.18-21.24-23.84-53.46-36.88-85.39-36.67-15.07.1-32.25,2.27-43.22-8.06-9.73-9.16-10.12-24.5-7.62-37.63s7.21-26.3,5.2-39.52c-3.57-23.47-28.15-39.2-51.86-40.49-35.52-1.93-70.5,24.41-78.45,59.08-4.81,20.95.52,44.81,13.5,61.96,10.65,14.06,23.64,15.46,38.16,23.22,43.28,23.12,28.41,58.69,21.07,94.75,7.84.43,15.61,1.6,23.19,3.7,21.03,5.84,40.46,19.31,50.65,38.62h0Z"/>
        <path class="cls-4" d="M296.11,551.15c9.05,17.14,11.58,38.46,12.46,60.07,28.1-.2,56.3-11.42,79.07-28.44,20.73-15.5,38.3-36.46,45.21-61.4.58-2.1,1.07-4.22,1.49-6.36-7.13-2.91-13.63-7.29-18.79-13.04-16.49-18.37-17.89-48.29-3.74-68.51.03-.04.06-.07.08-.11-.34-.39-.67-.79-1.02-1.18-21.24-23.84-53.46-36.88-85.39-36.67-15.07.1-32.25,2.27-43.22-8.06-9.73-9.16-10.12-24.5-7.62-37.63s7.21-26.3,5.2-39.52c-3.57-23.47-28.15-39.2-51.86-40.49-35.52-1.93-70.5,24.41-78.45,59.08-4.81,20.95.52,44.81,13.5,61.96,10.65,14.06,23.64,15.46,38.16,23.22,43.28,23.12,28.41,58.69,21.07,94.75,7.84.43,15.61,1.6,23.19,3.7,21.03,5.84,40.46,19.31,50.65,38.62h0Z"/>
        <path class="cls-20" d="M592.29,584.8c-14.51-8.5-32.73-4.65-49.5-5.86-18.36-1.32-35.66-8.94-53.78-12.13-18.13-3.19-39.34-.68-50.64,13.85-9.66,12.42-8.74,30.47-.98,44.35h168.45c5.2-14.26-.22-32.41-13.54-40.21h-.01Z"/>
        <path class="cls-18" d="M592.29,584.8c-14.51-8.5-32.73-4.65-49.5-5.86-18.36-1.32-35.66-8.94-53.78-12.13-18.13-3.19-39.34-.68-50.64,13.85-9.66,12.42-8.74,30.47-.98,44.35h168.45c5.2-14.26-.22-32.41-13.54-40.21h-.01Z"/>
        <path class="cls-20" d="M50.73,268.07c15.97,8.98,34.64,14.52,52.67,11.31,18.04-3.21,34.91-16.65,38.36-34.64,3.67-19.1-7.56-37.43-16.04-54.94-8.47-17.51-13.78-40.46-.71-54.86,7.23-7.97,18.56-11.09,29.31-11.02s21.27,2.9,31.81,5.06c11.97,2.45,24.28,4.02,36.48,3.92-.29-45.08,40.79-65.28,84.13-64.94,3.17-13.25,6.45-26.25,16.95-34.21,15.56-11.8,37.43-5.42,56.81-3.06,23.53,2.87,47.88-1.25,69.16-11.71,8.99-4.42,17.93-10.74,23.23-18.95H12.56C5.63,0,0,5.27,0,11.77v205.26c11.77,21.41,31.02,39.96,50.73,51.04Z"/>
        <path class="cls-3" d="M50.73,268.07c15.97,8.98,34.64,14.52,52.67,11.31,18.04-3.21,34.91-16.65,38.36-34.64,3.67-19.1-7.56-37.43-16.04-54.94-8.47-17.51-13.78-40.46-.71-54.86,7.23-7.97,18.56-11.09,29.31-11.02s21.27,2.9,31.81,5.06c11.97,2.45,24.28,4.02,36.48,3.92-.29-45.08,40.79-65.28,84.13-64.94,3.17-13.25,6.45-26.25,16.95-34.21,15.56-11.8,37.43-5.42,56.81-3.06,23.53,2.87,47.88-1.25,69.16-11.71,8.99-4.42,17.93-10.74,23.23-18.95H12.56C5.63,0,0,5.27,0,11.77v205.26c11.77,21.41,31.02,39.96,50.73,51.04Z"/>
        <path class="cls-20" d="M682.31,297.37c4.22-26.17,32.14-41.08,45.41-64.04,12-20.77,10.45-48.59-3.78-67.91-14.23-19.31-40.35-29.03-63.74-23.71s-42.75,25.36-47.24,48.93c-4.32,22.65,4.12,45.5,10.35,67.7,6.24,22.2,9.92,47.59-2.48,67.04-12.19,19.12-43.85,29.44-48.58,53.14-4.35,21.82,17.63,48.83,34.26,59.63,10.27,6.67,22.35,10.51,34.57,11.27-5.56-20.98-5.99-43.25.59-63.84,7.51-23.49,24.92-44.15,47.2-54.16-5.02-11.02-8.47-22.16-6.56-34.05h0Z"/>
        <path class="cls-17" d="M682.31,297.37c4.22-26.17,32.14-41.08,45.41-64.04,12-20.77,10.45-48.59-3.78-67.91-14.23-19.31-40.35-29.03-63.74-23.71s-42.75,25.36-47.24,48.93c-4.32,22.65,4.12,45.5,10.35,67.7,6.24,22.2,9.92,47.59-2.48,67.04-12.19,19.12-43.85,29.44-48.58,53.14-4.35,21.82,17.63,48.83,34.26,59.63,10.27,6.67,22.35,10.51,34.57,11.27-5.56-20.98-5.99-43.25.59-63.84,7.51-23.49,24.92-44.15,47.2-54.16-5.02-11.02-8.47-22.16-6.56-34.05h0Z"/>
        <path class="cls-20" d="M641.67,385.58c-6.58,20.58-6.15,42.86-.59,63.84,12.73.79,25.61-1.76,36.76-7.99,21.83-12.2,35.33-38.54,30.96-63.17-2.92-16.47-12.94-31.53-19.92-46.84-22.27,10.01-39.68,30.67-47.2,54.16h-.01Z"/>
        <path class="cls-11" d="M641.67,385.58c-6.58,20.58-6.15,42.86-.59,63.84,12.73.79,25.61-1.76,36.76-7.99,21.83-12.2,35.33-38.54,30.96-63.17-2.92-16.47-12.94-31.53-19.92-46.84-22.27,10.01-39.68,30.67-47.2,54.16h-.01Z"/>
        <path class="cls-9" d="M641.67,385.58c-6.58,20.58-6.15,42.86-.59,63.84,12.73.79,25.61-1.76,36.76-7.99,21.83-12.2,35.33-38.54,30.96-63.17-2.92-16.47-12.94-31.53-19.92-46.84-22.27,10.01-39.68,30.67-47.2,54.16h-.01Z"/>
        <path class="cls-20" d="M784.41,23.85c6.66,26.5,28.02,47.18,51.89,60.49,31.35,17.49,69.16,24.45,103.98,15.69,17.72-4.45,35.16-13.51,45.04-28.88,13.71-21.32,9.07-49.57-5.09-71.15h-197.47c-.8,7.97-.3,16.06,1.66,23.84h0Z"/>
        <path class="cls-7" d="M784.41,23.85c6.66,26.5,28.02,47.18,51.89,60.49,31.35,17.49,69.16,24.45,103.98,15.69,17.72-4.45,35.16-13.51,45.04-28.88,13.71-21.32,9.07-49.57-5.09-71.15h-197.47c-.8,7.97-.3,16.06,1.66,23.84h0Z"/>
        <path class="cls-20" d="M251.49,129.04c-9.41,2.62-19.11,3.76-28.87,3.84.02,3.35.27,6.83.76,10.45,4.32,31.76,28.14,59.69,58.36,70.39,30.22,10.71,65.5,4.44,91.13-14.81,13.08-9.82,23.91-23.03,29.29-38.48s4.94-33.19-2.77-47.61c-15.32-28.67-54.85-44.58-92.65-44.88-1.68,7.04-3.34,14.16-6.02,20.63-8.43,20.31-28.05,34.57-49.24,40.47h0Z"/>
        <path class="cls-2" d="M251.49,129.04c-9.41,2.62-19.11,3.76-28.87,3.84.02,3.35.27,6.83.76,10.45,4.32,31.76,28.14,59.69,58.36,70.39,30.22,10.71,65.5,4.44,91.13-14.81,13.08-9.82,23.91-23.03,29.29-38.48s4.94-33.19-2.77-47.61c-15.32-28.67-54.85-44.58-92.65-44.88-1.68,7.04-3.34,14.16-6.02,20.63-8.43,20.31-28.05,34.57-49.24,40.47h0Z"/>
        <path class="cls-20" d="M222.62,132.89c9.76-.08,19.46-1.22,28.87-3.84,21.18-5.9,40.8-20.16,49.24-40.47,2.69-6.47,4.34-13.59,6.02-20.63-43.35-.34-84.42,19.86-84.13,64.94h0Z"/>
        <path class="cls-5" d="M222.62,132.89c9.76-.08,19.46-1.22,28.87-3.84,21.18-5.9,40.8-20.16,49.24-40.47,2.69-6.47,4.34-13.59,6.02-20.63-43.35-.34-84.42,19.86-84.13,64.94h0Z"/>
        <path class="cls-6" d="M222.62,132.89c9.76-.08,19.46-1.22,28.87-3.84,21.18-5.9,40.8-20.16,49.24-40.47,2.69-6.47,4.34-13.59,6.02-20.63-43.35-.34-84.42,19.86-84.13,64.94h0Z"/>
        <path class="cls-20" d="M434.33,515.01c15.65,6.38,34.34,5.62,48.6-3.56,32.02-20.59,29.6-64.06,5.93-89.71-21.55-23.35-59.63-13.04-76.98,11.61,19.09,22.14,28.04,53.08,22.44,81.66h.01Z"/>
        <path class="cls-1" d="M434.33,515.01c15.65,6.38,34.34,5.62,48.6-3.56,32.02-20.59,29.6-64.06,5.93-89.71-21.55-23.35-59.63-13.04-76.98,11.61,19.09,22.14,28.04,53.08,22.44,81.66h.01Z"/>
        <path class="cls-20" d="M415.54,501.97c5.16,5.75,11.66,10.13,18.79,13.04,5.6-28.58-3.36-59.52-22.44-81.66-.03.04-.06.07-.08.11-14.16,20.22-12.75,50.14,3.74,68.51h-.01Z"/>
        <path class="cls-12" d="M415.54,501.97c5.16,5.75,11.66,10.13,18.79,13.04,5.6-28.58-3.36-59.52-22.44-81.66-.03.04-.06.07-.08.11-14.16,20.22-12.75,50.14,3.74,68.51h-.01Z"/>
        <path class="cls-10" d="M415.54,501.97c5.16,5.75,11.66,10.13,18.79,13.04,5.6-28.58-3.36-59.52-22.44-81.66-.03.04-.06.07-.08.11-14.16,20.22-12.75,50.14,3.74,68.51h-.01Z"/>
        <path class="cls-20" d="M964.74,529.97c-22.26-12.7-53.95-.41-72,15.28-17.63,15.33-27.95,39.26-25.23,62.47.7,5.95,2.3,11.78,4.67,17.29h115.26c1.08,0,2.13-.14,3.13-.38,4.99-8.56,8.31-18.04,9.43-27.86v-14.78c-2.54-21.81-16.14-41.11-35.26-52.01h0Z"/>
        <path class="cls-13" d="M964.74,529.97c-22.26-12.7-53.95-.41-72,15.28-17.63,15.33-27.95,39.26-25.23,62.47.7,5.95,2.3,11.78,4.67,17.29h115.26c1.08,0,2.13-.14,3.13-.38,4.99-8.56,8.31-18.04,9.43-27.86v-14.78c-2.54-21.81-16.14-41.11-35.26-52.01h0Z"/>
        <path class="cls-20" d="M282.52,608.05c-36.07-9.41-66.15-44.23-62.98-81.38.51-5.93,1.51-11.89,2.73-17.85-13.91-.76-28.02.87-41.62,4.03-22.76,5.28-48.7,14.18-67.77.68-10.56-7.48-15.93-20.1-23.61-30.51-17.1-23.19-47.81-35.49-76.19-30.51-4.47.78-8.84,1.99-13.08,3.58v157.17c0,6.49,5.63,11.76,12.56,11.76h296.39c-.08-4.59-.2-9.2-.39-13.8-8.75.06-17.48-.93-26.05-3.17h0Z"/>
        <path class="cls-19" d="M282.52,608.05c-36.07-9.41-66.15-44.23-62.98-81.38.51-5.93,1.51-11.89,2.73-17.85-13.91-.76-28.02.87-41.62,4.03-22.76,5.28-48.7,14.18-67.77.68-10.56-7.48-15.93-20.1-23.61-30.51-17.1-23.19-47.81-35.49-76.19-30.51-4.47.78-8.84,1.99-13.08,3.58v157.17c0,6.49,5.63,11.76,12.56,11.76h296.39c-.08-4.59-.2-9.2-.39-13.8-8.75.06-17.48-.93-26.05-3.17h0Z"/>
        <path class="cls-20" d="M282.52,608.05c8.56,2.23,17.3,3.23,26.05,3.17-.88-21.61-3.41-42.93-12.46-60.07-10.19-19.31-29.61-32.78-50.65-38.62-7.58-2.1-15.35-3.28-23.19-3.7-1.21,5.95-2.22,11.92-2.73,17.85-3.17,37.14,26.9,71.97,62.98,81.38h0Z"/>
        <path class="cls-14" d="M282.52,608.05c8.56,2.23,17.3,3.23,26.05,3.17-.88-21.61-3.41-42.93-12.46-60.07-10.19-19.31-29.61-32.78-50.65-38.62-7.58-2.1-15.35-3.28-23.19-3.7-1.21,5.95-2.22,11.92-2.73,17.85-3.17,37.14,26.9,71.97,62.98,81.38h0Z"/>
        <path class="cls-15" d="M282.52,608.05c8.56,2.23,17.3,3.23,26.05,3.17-.88-21.61-3.41-42.93-12.46-60.07-10.19-19.31-29.61-32.78-50.65-38.62-7.58-2.1-15.35-3.28-23.19-3.7-1.21,5.95-2.22,11.92-2.73,17.85-3.17,37.14,26.9,71.97,62.98,81.38h0Z"/>
      </g>
      <polyline class="cls-20" points="1000.04 0 1000 11.32 987.45 0"/>
      <polygon class="cls-16" points="12.56 .03 .03 .03 0 11.77 12.56 .03"/>
      <path class="cls-20" d="M1000,613.25l.04,11.76h-12.6c.61.55,13.04-4.98,12.56-11.76Z"/>
      <path class="cls-21" d="M.03,614.06v10.96h12.02c-5.49-2.25-7.72.05-12.02-10.96Z"/>
    </g>
  </g>
</svg>